<svg version="1.0" xmlns="http://www.w3.org/2000/svg"
 width="140.000000pt" height="100.000000pt" viewBox="150 10 820.000000 473.000000"
 preserveAspectRatio="xMidYMid meet">

<g transform="translate(0.000000,473.000000) scale(0.100000,-0.100000)"
fill="#000000" stroke="none">
<path d="M2277 2672 c-158 -158 -287 -294 -287 -302 0 -9 19 -35 43 -58 l42
-42 240 240 c153 153 247 240 260 240 13 0 106 -86 257 -237 l238 -238 46 46
c38 39 44 49 36 65 -15 26 -566 574 -577 574 -6 0 -139 -129 -298 -288z"/>
<path d="M3375 2375 c0 -324 1 -456 2 -292 2 164 2 430 0 590 -1 161 -2 27 -2
-298z"/>
<path d="M3750 2812 c-19 -9 -44 -33 -54 -52 -37 -70 0 -142 92 -176 93 -35
128 -80 87 -114 -15 -13 -124 -10 -156 4 -11 5 -18 -2 -26 -28 -11 -35 -10
-35 26 -47 52 -18 160 -17 195 1 44 22 69 62 69 109 0 54 -22 84 -80 110 -109
49 -118 55 -121 82 -2 16 5 32 18 44 19 17 27 18 88 7 36 -6 67 -10 68 -9 1 1
5 14 9 30 6 24 3 29 -29 42 -49 20 -143 19 -186 -3z"/>
<path d="M4060 2611 l0 -221 50 0 50 0 0 80 0 80 63 0 c102 0 163 45 173 126
7 53 -20 102 -69 127 -29 15 -66 21 -153 25 l-114 5 0 -222z m203 138 c30 -16
37 -28 37 -65 0 -42 -27 -63 -89 -71 l-51 -6 0 77 0 76 41 0 c22 0 50 -5 62
-11z"/>
<path d="M4470 2612 l0 -222 45 0 45 0 0 80 0 80 44 0 43 0 36 -80 36 -80 51
0 50 0 -45 91 -46 90 30 34 c40 46 48 93 25 142 -29 59 -64 73 -198 80 l-116
6 0 -221z m208 132 c16 -11 22 -25 22 -53 0 -59 -16 -73 -80 -69 l-55 3 -3 68
-3 67 48 0 c28 0 58 -7 71 -16z"/>
<path d="M4880 2800 c0 -27 3 -30 30 -30 l30 0 0 -165 0 -165 -30 0 c-25 0
-30 -4 -30 -25 l0 -25 105 0 105 0 0 25 c0 21 -5 25 -30 25 l-30 0 0 164 0
165 28 3 c21 2 27 8 27 28 0 25 -1 25 -102 28 l-103 3 0 -31z"/>
<path d="M5177 2823 c-4 -3 -7 -102 -7 -220 l0 -213 50 0 49 0 3 144 3 145 90
-145 90 -144 47 0 48 0 0 220 0 220 -45 0 -44 0 -3 -150 -3 -150 -95 150 -95
150 -41 0 c-22 0 -44 -3 -47 -7z"/>
<path d="M5620 2795 l0 -35 60 0 60 0 0 -185 0 -185 50 0 50 0 0 185 0 185 60
0 60 0 0 35 0 35 -170 0 -170 0 0 -35z"/>
<path d="M6135 2811 c-80 -37 -125 -111 -125 -206 0 -106 55 -184 149 -212 62
-17 144 -12 192 13 l30 15 -3 102 -3 102 -82 3 -83 3 0 -36 c0 -34 1 -35 41
-35 l40 0 -3 -52 -3 -53 -42 -3 c-83 -6 -142 58 -143 155 0 114 81 179 193
155 44 -9 46 -8 52 16 10 39 -16 52 -99 52 -48 0 -84 -7 -111 -19z"/>
<path d="M6553 2811 c-96 -44 -138 -195 -87 -317 41 -97 167 -142 270 -95 93
42 138 170 103 294 -13 47 -63 106 -106 123 -46 20 -131 17 -180 -5z m155 -64
c40 -32 59 -125 42 -197 -33 -136 -185 -131 -206 6 -14 97 11 172 67 201 25
14 75 8 97 -10z"/>
<path d="M2345 2440 l-220 -220 43 -42 42 -42 173 172 c95 94 179 172 187 172
8 0 92 -78 187 -172 l173 -172 42 42 43 42 -220 220 c-121 121 -222 220 -225
220 -3 0 -104 -99 -225 -220z"/>
<path d="M2420 2235 l-155 -155 42 -42 43 -42 103 102 c57 56 110 102 118 102
7 0 61 -47 119 -105 l106 -105 44 45 45 45 -155 155 -155 155 -155 -155z"/>
<path d="M3680 2100 l0 -190 1573 2 1572 3 3 188 2 187 -1575 0 -1575 0 0
-190z m299 46 c7 -8 11 -20 10 -28 -1 -7 1 -21 6 -31 10 -24 -13 -49 -44 -45
-23 3 -26 8 -29 47 -2 24 -1 50 2 57 7 18 40 18 55 0z m126 4 c-3 -5 -15 -10
-26 -10 -10 0 -19 -7 -19 -15 0 -9 10 -15 26 -15 14 0 23 -4 19 -10 -3 -5 -15
-10 -26 -10 -10 0 -19 -7 -19 -15 0 -9 9 -15 25 -15 14 0 25 -5 25 -11 0 -6
-14 -9 -32 -7 -31 3 -33 5 -36 47 -4 59 2 71 38 71 18 0 29 -4 25 -10z m65
-15 c0 -20 5 -25 25 -25 20 0 25 5 25 25 0 14 5 25 10 25 6 0 10 -27 10 -60 0
-33 -4 -60 -10 -60 -5 0 -10 11 -10 25 0 20 -5 25 -25 25 -20 0 -25 -5 -25
-26 0 -14 -4 -23 -10 -19 -5 3 -10 31 -10 61 0 30 5 54 10 54 6 0 10 -11 10
-25z m190 -31 c11 -31 18 -59 14 -63 -4 -3 -9 0 -11 7 -6 15 -45 16 -61 0 -6
-6 -14 -9 -17 -6 -7 7 36 118 46 118 4 0 17 -25 29 -56z m114 14 l26 -43 0 43
c0 23 5 42 10 42 6 0 10 -27 10 -60 0 -33 -4 -60 -10 -60 -5 0 -21 17 -35 37
l-25 38 0 -32 c0 -18 -4 -35 -10 -38 -6 -4 -10 17 -10 54 0 34 4 61 9 61 6 0
21 -19 35 -42z m194 23 c3 -9 -2 -11 -17 -6 -33 10 -61 -3 -61 -29 0 -32 24
-50 56 -42 19 5 25 3 22 -6 -3 -7 -13 -15 -22 -16 -66 -13 -104 52 -63 106 13
17 79 12 85 -7z m112 9 c0 -5 -9 -10 -20 -10 -11 0 -20 -7 -20 -15 0 -8 9 -15
20 -15 11 0 20 -4 20 -10 0 -5 -9 -10 -20 -10 -11 0 -20 -7 -20 -15 0 -8 9
-15 20 -15 11 0 20 -4 20 -10 0 -5 -13 -10 -30 -10 l-30 0 0 60 0 60 30 0 c17
0 30 -4 30 -10z m151 -12 l12 -23 10 23 c11 24 27 30 27 10 -1 -7 -7 -24 -15
-38 -8 -14 -14 -35 -15 -47 0 -13 -4 -23 -10 -23 -5 0 -10 11 -10 24 0 13 -7
40 -15 60 -17 39 -3 50 16 14z m198 -12 c12 -25 11 -31 -6 -55 -28 -37 -65
-39 -92 -5 -25 32 -26 42 -5 72 24 35 84 28 103 -12z m73 -13 c2 -35 7 -48 18
-48 11 0 16 13 18 48 2 26 8 47 13 47 18 0 6 -102 -13 -114 -31 -19 -53 4 -56
63 -2 29 1 51 7 51 5 0 11 -21 13 -47z m169 31 c10 -12 10 -20 1 -35 -10 -15
-9 -23 0 -39 7 -10 8 -23 4 -27 -5 -4 -11 -3 -13 3 -2 6 -10 20 -18 30 -14 18
-14 18 -15 -8 0 -16 -4 -28 -10 -28 -6 0 -10 27 -10 60 0 57 1 60 24 60 13 0
29 -7 37 -16z m164 -21 l8 -38 10 38 c11 46 24 47 35 5 9 -32 11 -31 26 15 3
10 10 16 15 13 10 -7 -19 -116 -31 -116 -5 0 -11 13 -14 30 -7 32 -24 32 -24
0 0 -29 -19 -34 -29 -7 -17 43 -24 97 -13 97 5 0 13 -17 17 -37z m239 21 c25
-25 20 -71 -10 -90 -55 -37 -117 25 -80 80 19 30 65 35 90 10z m131 -31 c0
-22 3 -44 7 -48 4 -4 5 -12 1 -17 -3 -6 -16 3 -29 18 l-23 29 -1 -27 c0 -16
-4 -28 -10 -28 -6 0 -10 27 -10 61 l0 60 33 -3 c30 -3 32 -5 32 -45z m75 25
l0 -23 20 25 c24 32 38 19 16 -15 -15 -23 -15 -27 0 -50 22 -34 8 -47 -16 -15
l-20 25 0 -22 c0 -13 -4 -23 -10 -23 -6 0 -10 27 -10 60 0 33 4 60 10 60 6 0
10 -10 10 -22z m160 12 c0 -5 -9 -10 -20 -10 -11 0 -20 -7 -20 -15 0 -8 9 -15
20 -15 11 0 20 -4 20 -10 0 -5 -9 -10 -20 -10 -15 0 -20 -7 -20 -25 0 -14 -4
-25 -10 -25 -6 0 -10 27 -10 60 l0 60 30 0 c17 0 30 -4 30 -10z m70 -40 c0
-43 3 -50 20 -50 11 0 20 -4 20 -10 0 -5 -13 -10 -30 -10 l-30 0 0 60 c0 33 4
60 10 60 6 0 10 -22 10 -50z m194 28 c21 -30 20 -54 -4 -78 -40 -40 -102 -12
-102 46 0 52 76 75 106 32z m76 -8 c0 -32 17 -32 24 0 8 41 22 38 33 -7 l10
-38 8 38 c4 20 11 37 16 37 12 0 11 -8 -3 -69 -12 -52 -24 -64 -34 -33 -15 45
-17 46 -26 15 -5 -18 -12 -33 -17 -33 -9 0 -41 107 -33 114 9 10 22 -5 22 -24z"/>
<path d="M3950 2124 c0 -8 5 -12 10 -9 6 3 10 10 10 16 0 5 -4 9 -10 9 -5 0
-10 -7 -10 -16z"/>
<path d="M3950 2075 c0 -9 5 -15 11 -13 6 2 11 8 11 13 0 5 -5 11 -11 13 -6 2
-11 -4 -11 -13z"/>
<path d="M4320 2100 c0 -5 5 -10 10 -10 6 0 10 5 10 10 0 6 -4 10 -10 10 -5 0
-10 -4 -10 -10z"/>
<path d="M5042 2124 c-13 -23 -4 -52 20 -59 26 -9 50 13 46 44 -2 20 -9 27
-30 29 -17 2 -30 -3 -36 -14z"/>
<path d="M5330 2125 c0 -9 5 -15 11 -13 6 2 11 8 11 13 0 5 -5 11 -11 13 -6 2
-11 -4 -11 -13z"/>
<path d="M5700 2125 c-15 -19 -4 -52 21 -60 38 -12 65 35 37 63 -16 16 -43 15
-58 -3z"/>
<path d="M5860 2125 c0 -8 7 -15 15 -15 8 0 15 7 15 15 0 8 -7 15 -15 15 -8 0
-15 -7 -15 -15z"/>
<path d="M6333 2133 c-18 -7 -16 -48 2 -63 17 -14 51 -5 59 16 14 35 -23 63
-61 47z"/>
<path d="M2482 2027 l-83 -83 85 -83 c71 -68 88 -81 103 -72 10 5 49 41 88 80
l70 71 -85 85 c-47 47 -87 85 -90 85 -3 0 -43 -37 -88 -83z"/>
</g>
</svg>
